<svg aria-hidden="true" style="position: absolute; width: 0; height: 0; overflow: hidden;" version="1.1"
    xmlns="http://www.w3.org/2000/svg" xmlns:xlink="http://www.w3.org/1999/xlink">
    <defs>
        <symbol id="icon-telegram" viewBox="4 4 25 25">
            <path d="M16 5.12c6.009 0 10.88 4.871 10.88 10.88s-4.871 10.88-10.88 10.88-10.88-4.871-10.88-10.88 4.871-10.88 10.88-10.88zM19.753 20.435c0.2-0.614 1.138-6.733 1.253-7.939 0.035-0.365-0.081-0.608-0.306-0.716-0.273-0.131-0.678-0.066-1.148 0.104-0.644 0.232-8.881 3.729-9.357 3.932-0.451 0.192-0.878 0.401-0.878 0.704 0 0.213 0.127 0.333 0.475 0.457 0.362 0.129 1.275 0.406 1.814 0.554 0.519 0.143 1.11 0.019 1.441-0.187 0.351-0.218 4.402-2.929 4.692-3.166s0.522 0.067 0.285 0.305c-0.237 0.237-3.018 2.936-3.385 3.31-0.445 0.454-0.129 0.924 0.17 1.112 0.341 0.215 2.794 1.86 3.164 2.124s0.744 0.383 1.087 0.383c0.343-0.001 0.523-0.453 0.694-0.977z"></path>
        </symbol>

        <symbol id="icon-mail" viewBox="-1 -1 35 35">
            <path d="M16 0.64c-8.483 0-15.36 6.877-15.36 15.36s6.877 15.36 15.36 15.36 15.36-6.877 15.36-15.36-6.877-15.36-15.36-15.36zM9.97 11.2h12.032c0.638 0 0.309 0.819-0.038 1.029-0.347 0.208-5.152 3.115-5.333 3.222s-0.411 0.16-0.645 0.16c-0.008 0-0.017 0-0.026 0-0.227 0-0.439-0.059-0.624-0.164l0.006 0.003-5.334-3.222c-0.347-0.21-0.675-1.029-0.038-1.029zM22.4 20c0 0.336-0.403 0.8-0.71 0.8h-11.379c-0.307 0-0.71-0.464-0.71-0.8v-5.835c0-0.147-0.003-0.338 0.275-0.176l5.467 3.224c0.164 0.102 0.363 0.162 0.576 0.162 0.024 0 0.047-0.001 0.071-0.002l-0.003 0c0.234 0 0.403-0.018 0.645-0.16l5.494-3.222c0.278-0.163 0.275 0.029 0.275 0.176v5.834z"></path>
        </symbol>

        <symbol id="icon-github" viewBox="0 0 32 32">
            <path d="M14.533 2.8c-6.133 0.667-11.067 5.6-11.733 11.6-0.667 6.267 2.933 11.867 8.4 14 0.4 0.133 0.8-0.133 0.8-0.667v-2.133c0 0-0.533 0.133-1.2 0.133-1.867 0-2.667-1.6-2.8-2.533-0.133-0.533-0.4-0.933-0.8-1.333-0.4-0.133-0.533-0.133-0.533-0.267 0-0.267 0.4-0.267 0.533-0.267 0.8 0 1.467 0.933 1.733 1.333 0.667 1.067 1.467 1.333 1.867 1.333 0.533 0 0.933-0.133 1.2-0.267 0.133-0.933 0.533-1.867 1.333-2.4-3.067-0.667-5.333-2.4-5.333-5.333 0-1.467 0.667-2.933 1.6-4-0.133-0.267-0.267-0.933-0.267-1.867 0-0.533 0-1.333 0.4-2.133 0 0 1.867 0 3.733 1.733 0.667-0.267 1.6-0.4 2.533-0.4s1.867 0.133 2.667 0.4c1.733-1.733 3.733-1.733 3.733-1.733 0.267 0.8 0.267 1.6 0.267 2.133 0 1.067-0.133 1.6-0.267 1.867 0.933 1.067 1.6 2.4 1.6 4 0 2.933-2.267 4.667-5.333 5.333 0.8 0.667 1.333 1.867 1.333 3.067v3.467c0 0.4 0.4 0.8 0.933 0.667 4.933-2 8.4-6.8 8.4-12.4 0-8-6.8-14.267-14.8-13.333z"></path>
        </symbol>

        <symbol id="icon-linkedin" viewBox="0 0 32 32">
            <path d="M16 3.2c-7.069 0-12.8 5.731-12.8 12.8s5.731 12.8 12.8 12.8 12.8-5.731 12.8-12.8c0-7.069-5.731-12.8-12.8-12.8zM11.196 8.963c0.898 0 1.497 0.598 1.497 1.396s-0.598 1.396-1.596 1.396c-0.898 0.001-1.497-0.598-1.497-1.396s0.598-1.396 1.596-1.396zM12.8 21.333h-3.2v-8.533h3.2v8.533zM23.467 21.333h-3.012v-4.663c0-1.29-0.803-1.587-1.104-1.587s-1.306 0.198-1.306 1.587c0 0.198 0 4.663 0 4.663h-3.111v-8.533h3.113v1.19c0.401-0.694 1.204-1.19 2.71-1.19s2.71 1.19 2.71 3.87v4.663z"></path>
        </symbol>

        <symbol id="hero-hat" viewBox="0 0 20 20">
            <path d="M4 14.5V11.165L8.00843 13.4663C9.24174 14.1743 10.7583 14.1743 11.9916 13.4663L16 11.165V14.5C16 14.6326 15.9473 14.7598 15.8536 14.8536L15.852 14.8551L15.8496 14.8574L15.8428 14.8642L15.8201 14.8859C15.801 14.9039 15.7741 14.9288 15.7394 14.9596C15.6701 15.0213 15.5696 15.1067 15.4389 15.2079C15.1777 15.41 14.7948 15.6761 14.2978 15.9412C13.3033 16.4716 11.8479 17 10 17C8.15211 17 6.69675 16.4716 5.70221 15.9412C5.20518 15.6761 4.82226 15.41 4.5611 15.2079C4.43043 15.1067 4.32994 15.0213 4.26059 14.9596C4.22591 14.9288 4.19898 14.9039 4.17992 14.8859L4.15724 14.8642C4.05938 14.7684 4 14.6378 4 14.5Z" fill="#F07927"/>
            <path d="M18.7489 8.43369L11.4937 12.599C10.5687 13.1301 9.4313 13.1301 8.50632 12.599L2 8.86367L2 13.5C2 13.7761 1.77614 14 1.5 14C1.22386 14 1 13.7761 1 13.5V8.00008C1 7.81007 1.10598 7.64474 1.26206 7.56014L8.5063 3.40104C8.85317 3.20189 9.22992 3.07743 9.61413 3.02764C9.73586 3.01187 9.85834 3.00359 9.98086 3.00281C10.3739 3.0003 10.7674 3.07496 11.1377 3.22679C11.2591 3.27658 11.3781 3.33466 11.4937 3.40104L18.749 7.56646C18.9042 7.65561 19 7.82101 19 8.00008C19 8.17914 18.9042 8.34454 18.7489 8.43369Z" fill="#F07927"/>
        </symbol>

        <symbol id="arrow-down" viewBox="0 0 32 32">
            <path d="M0.256 8.606c0-0.269 0.106-0.544 0.313-0.75 0.412-0.412 1.087-0.412 1.5 0l14.119 14.119 13.913-13.912c0.413-0.412 1.087-0.412 1.5 0s0.413 1.088 0 1.5l-14.663 14.669c-0.413 0.413-1.088 0.413-1.5 0l-14.869-14.869c-0.213-0.213-0.313-0.481-0.313-0.756z" />
        </symbol>

        <symbol id="arrow-up" viewBox="0 0 32 32">
            <path d="M0.256 23.481c0 0.269 0.106 0.544 0.313 0.75 0.412 0.413 1.087 0.413 1.5 0l14.119-14.119 13.913 13.912c0.413 0.413 1.087 0.413 1.5 0s0.413-1.087 0-1.5l-14.663-14.669c-0.413-0.412-1.088-0.412-1.5 0l-14.869 14.869c-0.213 0.212-0.313 0.481-0.313 0.756z"/>
        </symbol>

        <symbol id="cross" viewBox="0 0 30 32">
            <path
                d="M16.219 14.826l4.928-4.923c0.156-0.177 0.252-0.412 0.252-0.668 0-0.559-0.453-1.013-1.013-1.013-0.257 0-0.492 0.096-0.67 0.253l0.001-0.001-4.927 4.874-4.959-4.955c-0.175-0.146-0.402-0.235-0.649-0.235-0.56 0-1.014 0.454-1.014 1.014 0 0.247 0.089 0.474 0.236 0.65l-0.001-0.002 4.948 5.006-4.847 4.782c-0.211 0.187-0.344 0.458-0.344 0.76 0 0.559 0.454 1.013 1.013 1.013 0.303 0 0.574-0.133 0.76-0.343l0.001-0.001 4.836-4.832 4.806 4.801c0.175 0.146 0.402 0.235 0.649 0.235 0.56 0 1.014-0.454 1.014-1.014 0-0.247-0.089-0.474-0.236-0.65l0.001 0.002-4.785-4.751z">
            </path>
        </symbol>
        <symbol id="arrow-right" viewBox="0 0 18 32">
            <path
                d="M17.657 15.035l-14.862-14.16c-0.239-0.228-0.563-0.368-0.92-0.368s-0.681 0.14-0.921 0.369l0.001-0-0.016 0.016c-0.235 0.224-0.382 0.539-0.382 0.889s0.146 0.665 0.381 0.889l0 0 13.995 13.333-13.995 13.328c-0.236 0.224-0.383 0.54-0.383 0.89s0.147 0.666 0.382 0.889l0.001 0 0.016 0.016c0.239 0.228 0.563 0.368 0.92 0.368s0.681-0.14 0.921-0.369l-0.001 0 14.862-14.16c0.255-0.243 0.413-0.586 0.413-0.965s-0.158-0.722-0.413-0.965l-0-0z">
            </path>
        </symbol>
        <symbol id="arrow-left" viewBox="0 0 18 32">
            <path
                d="M0.484 16.965l14.862 14.16c0.239 0.228 0.563 0.368 0.92 0.368s0.681-0.14 0.921-0.369l-0.001 0 0.016-0.016c0.236-0.224 0.382-0.54 0.382-0.89s-0.147-0.666-0.382-0.889l-0.001-0-13.995-13.333 13.995-13.327c0.236-0.224 0.382-0.54 0.382-0.89s-0.147-0.666-0.382-0.889l-0.001-0-0.016-0.016c-0.239-0.228-0.563-0.368-0.92-0.368s-0.681 0.14-0.921 0.369l0.001-0-14.862 14.16c-0.255 0.243-0.413 0.586-0.413 0.965s0.158 0.722 0.413 0.965l0.001 0z">
            </path>
        </symbol>
        <symbol id="star" viewBox="0 0 34 32">
            <path fill="#ffe550" style="fill: var(--color1, #ffe550)"
                d="M15.427 1.047c0.584-1.385 2.577-1.385 3.161 0l3.45 8.166c0.246 0.582 0.804 0.98 1.445 1.032l8.956 0.706c1.517 0.12 2.133 1.983 0.976 2.959l-6.823 5.755c-0.367 0.309-0.598 0.768-0.598 1.281 0 0.138 0.017 0.273 0.048 0.401l-0.002-0.011 2.085 8.604c0.352 1.457-1.259 2.609-2.557 1.829l-7.668-4.612c-0.255-0.155-0.563-0.247-0.892-0.247s-0.638 0.092-0.9 0.251l0.008-0.004-7.668 4.612c-1.301 0.78-2.909-0.372-2.557-1.829l2.085-8.604c0.029-0.117 0.046-0.251 0.046-0.39 0-0.513-0.231-0.973-0.596-1.279l-0.003-0.002-6.823-5.753c-1.157-0.976-0.54-2.841 0.976-2.961l8.956-0.704c0.65-0.050 1.194-0.456 1.44-1.021l0.004-0.011 3.45-8.168z">
            </path>
        </symbol>
        <symbol id="burger-menu" viewBox="0 0 43 32">
            <path 
                d="M0.592 3.556c0-1.146 0.929-2.075 2.075-2.075v0h37.333c1.146 0 2.075 0.929 2.075 2.075s-0.929 2.075-2.075 2.075h-37.333c-1.146 0-2.075-0.929-2.075-2.075v0zM0.592 16.066c0.001-1.145 0.929-2.073 2.075-2.073 0 0 0 0 0 0h37.333c1.119 0.034 2.014 0.949 2.014 2.074s-0.895 2.040-2.011 2.074l-0.003 0h-37.333c-1.146 0-2.075-0.929-2.075-2.075v0zM2.667 26.503c-1.119 0.034-2.014 0.949-2.014 2.074s0.895 2.040 2.011 2.074l0.003 0h37.333c0.018 0.001 0.039 0.001 0.061 0.001 1.146 0 2.075-0.929 2.075-2.075s-0.929-2.075-2.075-2.075c-0.021 0-0.043 0-0.064 0.001l0.003-0h-37.333z">
            </path>
        </symbol>
        <symbol id="touch" viewBox="0 0 32 32">
            <path fill="#7eb101" style="fill: var(--color2, #7eb101)"
                d="M15.504 1.333c2.023 0 3.751 0.706 5.185 2.118 1.433 1.411 2.151 3.129 2.151 5.151 0 1.156-0.25 2.245-0.75 3.268-0.515 1.041-1.23 1.91-2.101 2.588l-0.017 0.012h-1.133v-1.667c0.627-0.495 1.129-1.12 1.47-1.836l0.013-0.031c0.326-0.677 0.517-1.472 0.517-2.311 0-0.008-0-0.016-0-0.024v0.001c0-1.467-0.523-2.712-1.567-3.734s-2.301-1.534-3.768-1.534c-1.466 0-2.723 0.511-3.767 1.534-1.045 1.022-1.567 2.267-1.567 3.734 0 0.822 0.172 1.6 0.517 2.334 0.355 0.747 0.857 1.372 1.473 1.859l0.011 0.008v2.401c-1.228-0.633-2.224-1.564-2.916-2.702l-0.018-0.032c-0.67-1.087-1.067-2.403-1.067-3.813 0-0.019 0-0.039 0-0.058l-0 0.003c0-2.022 0.717-3.74 2.151-5.151s3.162-2.118 5.184-2.118zM14.237 29.34c-0.378 0-0.734-0.072-1.067-0.216-0.337-0.146-0.624-0.342-0.867-0.584l-6.868-6.868 1.866-1.934c0.311-0.31 0.661-0.55 1.050-0.716 0.214-0.095 0.464-0.151 0.727-0.151 0.174 0 0.343 0.024 0.503 0.070l-0.013-0.003 2.601 0.6v-10.869c0-0.934 0.322-1.723 0.967-2.368s1.433-0.967 2.367-0.967c0.934 0 1.723 0.323 2.368 0.967s0.967 1.433 0.967 2.368v5.734h0.866c0.111 0 0.211 0.022 0.3 0.067 0.090 0.044 0.19 0.088 0.3 0.133l4.935 2.401c0.533 0.244 0.927 0.639 1.183 1.183s0.328 1.106 0.217 1.684l-1.2 7.268c-0.106 0.647-0.446 1.2-0.929 1.58l-0.005 0.004c-0.462 0.384-1.061 0.616-1.714 0.616-0.007 0-0.013-0-0.020-0h-8.534zM13.97 27.34h9.369l1.433-8.302-6.101-3.034h-1.833v-7.335c0-0.4-0.123-0.723-0.367-0.967s-0.567-0.367-0.967-0.367-0.722 0.123-0.966 0.367c-0.245 0.244-0.367 0.567-0.367 0.967v13.303l-5.134-1.1-0.767 0.766 5.701 5.701zM23.34 27.34v0z">
            </path>
        </symbol>
        <symbol id="rocket" viewBox="0 0 32 32">
            <path fill="#7eb101" style="fill: var(--color2, #7eb101)"
                d="M7.235 13.636l3.535 1.5c0.4-0.8 0.827-1.588 1.283-2.367s0.939-1.522 1.45-2.235l-2.634-0.533-3.635 3.634zM12.37 16.337l4.434 4.435c1.383-0.632 2.553-1.289 3.664-2.028l-0.096 0.060c1.11-0.733 2.011-1.444 2.701-2.134 1.8-1.8 3.123-3.646 3.967-5.535 0.845-1.889 1.3-4.023 1.367-6.402-2.379 0.067-4.512 0.523-6.402 1.367s-3.734 2.168-5.534 3.968c-0.69 0.689-1.4 1.589-2.135 2.701-0.678 1.014-1.334 2.184-1.899 3.405l-0.067 0.162zM20.005 13.136c-0.444-0.444-0.667-0.994-0.667-1.65 0-0.655 0.223-1.205 0.667-1.65 0.444-0.444 0.994-0.666 1.65-0.666s1.206 0.222 1.65 0.666c0.444 0.445 0.667 0.995 0.667 1.65 0 0.656-0.223 1.206-0.667 1.65s-0.994 0.667-1.65 0.667-1.206-0.222-1.65-0.667zM19.505 25.906l3.634-3.634-0.533-2.635c-0.711 0.512-1.456 0.995-2.234 1.45-0.778 0.456-1.567 0.884-2.368 1.284l1.5 3.534zM30.374 2.768c0.2 3.023-0.178 5.778-1.134 8.268-0.955 2.491-2.534 4.835-4.734 7.036l-0.067 0.066-0.066 0.067 0.733 3.668c0.067 0.333 0.050 0.655-0.050 0.966s-0.272 0.59-0.517 0.834l-5.701 5.734-2.834-6.602-5.668-5.668-6.602-2.834 5.735-5.701c0.244-0.244 0.522-0.417 0.833-0.517s0.633-0.116 0.967-0.050l3.667 0.734c0.019-0.020 0.041-0.036 0.066-0.049l0.001-0.001c0.026-0.014 0.048-0.030 0.067-0.050l0-0c2.201-2.201 4.545-3.785 7.035-4.751 2.49-0.967 5.245-1.35 8.269-1.15zM5.968 21.172c0.777-0.778 1.727-1.173 2.851-1.184 1.122-0.010 2.072 0.373 2.851 1.15 0.777 0.778 1.16 1.728 1.15 2.851-0.011 1.123-0.406 2.073-1.184 2.851-0.577 0.578-1.472 1.056-2.684 1.434s-3.029 0.733-5.451 1.066c0.333-2.423 0.683-4.245 1.050-5.467s0.839-2.124 1.417-2.701zM7.369 22.606c-0.311 0.333-0.59 0.856-0.834 1.567s-0.455 1.622-0.633 2.734c1.111-0.178 2.022-0.389 2.734-0.633 0.711-0.245 1.234-0.523 1.567-0.834 0.422-0.377 0.639-0.85 0.65-1.416 0.001-0.018 0.001-0.040 0.001-0.061 0-0.555-0.223-1.058-0.584-1.424l0 0c-0.366-0.361-0.869-0.584-1.424-0.584-0.021 0-0.043 0-0.064 0.001l0.003-0c-0.565 0.001-1.071 0.252-1.414 0.648l-0.002 0.002z">
            </path>
        </symbol>
        <symbol id="all-stars" viewBox="0 0 202 32">
            <path fill="#ffe550" style="fill: var(--color1, #ffe550)"
                d="M15.42 1.038c0.584-1.384 2.576-1.384 3.16 0l3.448 8.162c0.246 0.582 0.804 0.98 1.444 1.032l8.952 0.706c1.516 0.12 2.132 1.982 0.976 2.958l-6.82 5.752c-0.367 0.308-0.598 0.767-0.598 1.281 0 0.138 0.017 0.272 0.048 0.401l-0.002-0.011 2.084 8.6c0.352 1.456-1.258 2.608-2.556 1.828l-7.664-4.61c-0.255-0.155-0.563-0.247-0.892-0.247s-0.637 0.092-0.9 0.251l0.008-0.004-7.664 4.61c-1.3 0.78-2.908-0.372-2.556-1.828l2.084-8.6c0.029-0.117 0.046-0.251 0.046-0.389 0-0.513-0.231-0.972-0.596-1.278l-0.003-0.002-6.82-5.75c-1.156-0.976-0.54-2.84 0.976-2.96l8.952-0.704c0.649-0.050 1.193-0.456 1.44-1.021l0.004-0.011 3.448-8.164zM57.42 1.038c0.584-1.384 2.576-1.384 3.16 0l3.448 8.162c0.246 0.582 0.804 0.98 1.444 1.032l8.952 0.706c1.516 0.12 2.132 1.982 0.976 2.958l-6.82 5.752c-0.367 0.308-0.598 0.767-0.598 1.281 0 0.138 0.017 0.272 0.048 0.401l-0.002-0.011 2.084 8.6c0.352 1.456-1.258 2.608-2.556 1.828l-7.664-4.61c-0.255-0.155-0.563-0.247-0.892-0.247s-0.637 0.092-0.9 0.251l0.008-0.004-7.664 4.61c-1.3 0.78-2.908-0.372-2.556-1.828l2.084-8.6c0.029-0.117 0.046-0.252 0.046-0.39 0-0.513-0.231-0.972-0.596-1.278l-0.003-0.002-6.82-5.75c-1.156-0.976-0.54-2.84 0.976-2.96l8.952-0.704c0.649-0.050 1.193-0.456 1.44-1.021l0.004-0.011 3.448-8.164zM99.42 1.038c0.584-1.384 2.576-1.384 3.16 0l3.448 8.162c0.246 0.582 0.804 0.98 1.444 1.032l8.952 0.706c1.516 0.12 2.132 1.982 0.976 2.958l-6.82 5.752c-0.367 0.308-0.598 0.767-0.598 1.281 0 0.138 0.017 0.272 0.048 0.401l-0.002-0.011 2.084 8.6c0.352 1.456-1.258 2.608-2.556 1.828l-7.664-4.61c-0.255-0.155-0.563-0.247-0.892-0.247s-0.637 0.092-0.9 0.251l0.008-0.004-7.664 4.61c-1.3 0.78-2.908-0.372-2.556-1.828l2.084-8.6c0.030-0.118 0.047-0.253 0.047-0.392 0-0.512-0.231-0.97-0.594-1.276l-0.003-0.002-6.822-5.75c-1.158-0.976-0.542-2.84 0.974-2.96l8.952-0.704c0.649-0.050 1.193-0.456 1.44-1.021l0.004-0.011 3.45-8.164zM141.42 1.038c0.584-1.384 2.576-1.384 3.16 0l3.448 8.162c0.248 0.582 0.804 0.98 1.444 1.032l8.952 0.706c1.516 0.12 2.132 1.982 0.976 2.958l-6.82 5.752c-0.367 0.308-0.598 0.767-0.598 1.281 0 0.138 0.017 0.272 0.048 0.401l-0.002-0.011 2.084 8.6c0.352 1.456-1.258 2.608-2.556 1.828l-7.664-4.61c-0.255-0.155-0.563-0.247-0.892-0.247s-0.637 0.092-0.9 0.251l0.008-0.004-7.664 4.61c-1.3 0.78-2.908-0.372-2.556-1.828l2.084-8.6c0.029-0.117 0.046-0.252 0.046-0.39 0-0.513-0.232-0.972-0.596-1.278l-0.003-0.002-6.82-5.75c-1.156-0.976-0.54-2.84 0.976-2.96l8.952-0.704c0.649-0.050 1.193-0.456 1.44-1.021l0.004-0.011 3.448-8.164zM183.42 1.038c0.584-1.384 2.576-1.384 3.16 0l3.448 8.162c0.248 0.582 0.804 0.98 1.444 1.032l8.952 0.706c1.516 0.12 2.132 1.982 0.976 2.958l-6.82 5.752c-0.367 0.308-0.598 0.767-0.598 1.281 0 0.138 0.017 0.272 0.048 0.401l-0.002-0.011 2.084 8.6c0.352 1.456-1.258 2.608-2.556 1.828l-7.664-4.61c-0.255-0.155-0.563-0.247-0.892-0.247s-0.637 0.092-0.9 0.251l0.008-0.004-7.664 4.61c-1.3 0.78-2.908-0.372-2.556-1.828l2.084-8.6c0.029-0.117 0.046-0.252 0.046-0.39 0-0.513-0.232-0.972-0.596-1.278l-0.003-0.002-6.82-5.75c-1.156-0.976-0.54-2.84 0.976-2.96l8.952-0.704c0.649-0.050 1.193-0.456 1.44-1.021l0.004-0.011 3.448-8.164z">
            </path>
        </symbol>

        <symbol id="beginner" viewBox="0 0 508 508">
            <path style="fill:#F4EFEF;" d="M472,223c1.2,0,2,0.8,2,2v101.6h2c14.4,0,26-11.6,26-26v-96c0-14.4-12.4-26-26.8-26h-4.4
                c-1.2,0-2-0.8-2-2v-6c0-27.6-22.8-49.2-50-49.2H54c-27.6,0-48,19.6-48,47.2V337c0,27.6,21.6,49.6,48.8,49.6H420
                c27.6,0,50-22.4,50-49.6v-8.4V225C470,223.8,470.8,223,472,223z M436,221.4l2,112.4c0,14.4-9.2,28-23.6,28h-356
                c-14.4,0-24.4-14-24.4-28.4V173c0-14.4,10-23.2,24.4-23.2h356c14.4,0,22,6,22,20.4L436,221.4z"/>
            <path style="fill:#54B265;" d="M414,153.4H58c-12,0-20.4,7.2-20.4,19.2V333c0,12,8,24.4,20.4,24.4h356.4c12,0,25.6-10.8,25.6-22.8
                v-160C440,162.6,426.4,153.4,414,153.4z M146,319.4c0,5.6-4.4,10-10,10h-16c-5.6,0-10-4.4-10-10v-128c0-5.6,4.4-10,10-10h16
                c5.6,0,10,4.4,10,10V319.4z"/>
            <path style="fill:#F4EFEF;" d="M142,191.4c0-3.2-2.8-6-6-6h-16c-3.2,0-6,2.8-6,6v128c0,3.2,2.8,6,6,6h16c3.2,0,6-2.8,6-6V191.4z"/>
            <path d="M56.8,392.6C26,392.6,0,367,0,337V168.6c0-29.6,25.2-53.2,57.6-53.2h364.8c30.8,0,55.6,24.8,55.6,55.2v2
                c16.8,0.4,30,14.4,30,32v96c0,17.6-14.4,32-32,32l0,0v4.4c0,30.8-24.8,55.6-55.2,55.6H56.8z M57.6,123.4C29.6,123.4,8,143,8,168.6
                V337c0,26,22.4,47.6,48.8,47.6h364c26,0,47.2-21.6,47.2-47.6v-8.4c0-1.2,0.4-2,1.2-2.8s2-1.2,2.8-1.2h4c13.2,0,24-10.8,24-24v-96
                c0-13.6-10-24-23.2-24l0,0h-3.2c-2.4,0-4-2-4-4l0.4-6c0-26-21.2-47.2-47.6-47.2H57.6z"/>
            <path d="M472,333.4c-2.4,0-4-1.6-4-4v-104c0-2.4,1.6-4,4-4s4,1.6,4,4v104C476,331.8,474.4,333.4,472,333.4z"/>
            <path d="M418,363.4H62c-15.6,0-30-14.8-30-30.4V172.6c0-16,15.2-25.2,30-25.2h356c15.6,0,27.2,11.6,27.2,26.8c0,2.4-1.6,4-4,4
                s-4-1.6-4-4c0-10.8-8-18.8-19.2-18.8H62c-10.8,0-22,6.4-22,17.2V333c0,11.2,11.2,22.4,22,22.4h356.4c11.2,0,18-11.2,18-22v-112
                c0-2.4,1.6-4,4-4s4,1.6,4,4v112C444,348.2,434.4,363.4,418,363.4z"/>
            <path d="M136,331.4h-16c-6.8,0-12-7.2-12-13.2v-128c0-6.4,4.8-10.8,12-10.8h16c7.2,0,12,4.4,12,10.8v128
                C148,324.2,142.8,331.4,136,331.4z M120,187.4c-2,0-4,0.4-4,2.8v128c0,2.4,2,5.2,4,5.2h16c2,0,4-2.8,4-5.2v-128c0-2.4-2-2.8-4-2.8
                H120z"/>
        </symbol>

        <symbol id="intermediate" viewBox="0 0 508 508">
            <path style="fill:#F4EFEF;" d="M472,223c1.2,0,2,0.8,2,2v101.6h2c14.4,0,26-11.6,26-26v-96c0-14.4-12.4-26-26.8-26h-4.4
            c-1.2,0-2-0.8-2-2v-6c0-27.6-22.8-49.2-50-49.2H54c-27.6,0-48,19.6-48,47.2V337c0,27.6,21.6,49.6,48.8,49.6H420
            c27.6,0,50-22.4,50-49.6v-8.4V225C470,223.8,470.8,223,472,223z M436,221l2,112.8c0,14.4-9.2,28-23.6,28h-356
            c-14.4,0-24.4-14-24.4-28.4V173c0-14.4,10-23.2,24.4-23.2h356c14.4,0,22,10.4,22,24.8L436,221z"/>
            <path style="fill:#E07D46;" d="M414,153.4H58c-12,0-20.4,7.2-20.4,19.2V333c0,12,8,24.4,20.4,24.4h356.4c12,0,21.6-10.8,21.6-22.8
                v-160C436,162.6,426.4,153.4,414,153.4z M146,319.4c0,5.6-4.4,10-10,10h-16c-5.6,0-10-4.4-10-10v-128c0-5.6,4.4-10,10-10h16
                c5.6,0,10,4.4,10,10V319.4z M254,319.4c0,5.6-4.4,10-10,10h-16c-5.6,0-10-4.4-10-10v-128c0-5.6,4.4-10,10-10h16c5.6,0,10,4.4,10,10
                V319.4z"/>
            <g>
                <path style="fill:#F4EFEF;" d="M250,191.4c0-3.2-2.8-6-6-6h-16c-3.2,0-6,2.8-6,6v128c0,3.2,2.8,6,6,6h16c3.2,0,6-2.8,6-6V191.4z"/>
                <path style="fill:#F4EFEF;" d="M142,191.4c0-3.2-2.8-6-6-6h-16c-3.2,0-6,2.8-6,6v128c0,3.2,2.8,6,6,6h16c3.2,0,6-2.8,6-6V191.4z"/>
            </g>
            <path d="M56.8,392.6C26,392.6,0,367,0,337V168.6c0-29.6,25.2-53.2,57.6-53.2h364.8c30.8,0,55.6,24.8,55.6,55.2v2
                c16.8,0.8,30,14.4,30,32v96c0,17.6-14.4,32-32,32l0,0v4.4c0,30.8-24.8,55.6-55.2,55.6H56.8z M57.6,123.4C29.6,123.4,8,143,8,168.6
                V337c0,26,22.4,47.6,48.8,47.6h364c26,0,47.2-21.6,47.2-47.6v-8.4c0-1.2,0.4-2,1.2-2.8s2-1.2,2.8-1.2h4c13.2,0,24-10.8,24-24v-96
                c0-13.6-10-24-23.2-24l0,0h-2.4c-2,0-3.6-1.6-4-3.6l-0.4-6c0-26.4-21.2-47.6-47.6-47.6H57.6z"/>
            <path d="M472,333.4c-2.4,0-4-1.6-4-4v-104c0-2.4,1.6-4,4-4s4,1.6,4,4v104C476,331.8,474.4,333.4,472,333.4z"/>
            <path d="M418,363.4H62c-15.6,0-30-14.8-30-30.4V172.6c0-16,15.2-25.2,30-25.2h356c15.6,0,27.2,11.6,27.2,26.8c0,2.4-1.6,4-4,4
                s-4-1.6-4-4c0-10.8-8-18.8-19.2-18.8H62c-10.8,0-22,6.4-22,17.2V333c0,11.2,11.2,22.4,22,22.4h356.4c11.2,0,18-11.2,18-22v-112
                c0-2.4,1.6-4,4-4s4,1.6,4,4v112C444,348.2,434.4,363.4,418,363.4z"/>
            <path d="M244,331.4h-16c-7.2,0-12-6.8-12-13.2v-128c0-6.4,4.8-10.8,12-10.8h16c7.2,0,12,4.4,12,10.8v128
                C256,324.6,251.2,331.4,244,331.4z M228,187.4c-1.6,0-4,0.4-4,2.8v128c0,2.4,2,5.2,4,5.2h16c2,0,4-2.8,4-5.2v-128
                c0-2.4-2.4-2.8-4-2.8H228z"/>
            <path d="M136,331.4h-16c-7.2,0-12-6.8-12-13.2v-128c0-6.4,4.8-10.8,12-10.8h16c7.2,0,12,4.4,12,10.8v128
                C148,324.6,143.2,331.4,136,331.4z M120,187.4c-1.6,0-4,0.4-4,2.8v128c0,2.4,2,5.2,4,5.2h16c2,0,4-2.8,4-5.2v-128
                c0-2.4-2.4-2.8-4-2.8H120z"/>
        </symbol>

        <symbol id="advanced" viewBox="0 0 508 508">
            <path style="fill:#F4EFEF;" d="M472,222.6c1.2,0,2,0.8,2,2v101.6h2c14.4,0,26-11.6,26-26v-96c0-14.4-12.4-26-26.8-26h-4.4
                c-1.2,0-2-0.8-2-2v-6c0-27.6-22.8-49.2-50-49.2H54c-27.6,0-48,19.6-48,46.8v168.4c0,27.6,21.6,49.6,48.8,49.6H420
                c27.6,0,50-22.4,50-49.6v-8.4V224.2C470,223.4,470.8,222.6,472,222.6z M438,220.2V333c0,14.4-9.2,28-23.6,28h-356
                C44,361,34,347,34,332.6V172.2c0-14.4,10-23.2,24.4-23.2h356c14.4,0,24.8,10.4,24.8,24.4L438,220.2z"/>
            <path style="fill:#DF5C4E;" d="M414,153H58c-12,0-20.4,7.2-20.4,19.2v160.4c0,12,8,24.4,20.4,24.4h356.4c12,0,21.6-10.8,21.6-22.8
                v-160C436,162.2,426.4,153,414,153z M146,319c0,5.6-4.4,10-10,10h-16c-5.6,0-10-4.4-10-10V191c0-5.6,4.4-10,10-10h16
                c5.6,0,10,4.4,10,10V319z M254,319c0,5.6-4.4,10-10,10h-16c-5.6,0-10-4.4-10-10V191c0-5.6,4.4-10,10-10h16c5.6,0,10,4.4,10,10V319z
                M362,319c0,5.6-4.4,10-10,10h-16c-5.6,0-10-4.4-10-10V191c0-5.6,4.4-10,10-10h16c5.6,0,10,4.4,10,10V319z"/>
            <g>
                <path style="fill:#F4EFEF;" d="M250,191c0-3.2-2.8-6-6-6h-16c-3.2,0-6,2.8-6,6v128c0,3.2,2.8,6,6,6h16c3.2,0,6-2.8,6-6V191z"/>
                <path style="fill:#F4EFEF;" d="M142,191c0-3.2-2.8-6-6-6h-16c-3.2,0-6,2.8-6,6v128c0,3.2,2.8,6,6,6h16c3.2,0,6-2.8,6-6V191z"/>
                <path style="fill:#F4EFEF;" d="M358,191c0-3.2-2.8-6-6-6h-16c-3.2,0-6,2.8-6,6v128c0,3.2,2.8,6,6,6h16c3.2,0,6-2.8,6-6V191z"/>
            </g>
            <path d="M56.8,392.2C26,392.2,0,366.6,0,336.6V168.2c0-29.6,25.2-52.8,57.6-52.8h364.8c30.8,0,55.6,24.8,55.6,55.2v2
                c16.8,0.4,30,14.4,30,32v96c0,17.6-14.4,32-32,32l0,0v4.4c0,30.8-24.8,55.6-55.2,55.6L56.8,392.2z M57.6,123
                C29.6,123,8,142.6,8,167.8v168.4c0,26,22.4,47.6,48.8,47.6h364c26,0,47.2-21.6,47.2-47.6v-8.4c0-1.2,0.4-2,1.2-2.8
                c0.8-0.8,2-1.2,2.8-1.2h4c13.2,0,24-10.8,24-24v-96c0-13.2-10-24-23.2-24l0,0H474c-2,0-3.6-1.6-4-3.6l-0.4-6
                c0-26.4-21.2-47.6-47.6-47.6H57.6V123z"/>
            <path d="M472,333c-2.4,0-4-1.6-4-4V225c0-2.4,1.6-4,4-4s4,1.6,4,4v104C476,331.4,474.4,333,472,333z"/>
            <path d="M418,363H62c-15.6,0-30-14.8-30-30.4V172.2c0-16,15.2-25.2,30-25.2h356c15.6,0,27.2,11.6,27.2,26.8c0,2.4-1.6,4-4,4
                s-4-1.6-4-4c0-10.8-8-18.8-19.2-18.8H62c-10.8,0-22,6.4-22,17.2v160.4c0,11.2,11.2,22.4,22,22.4h356.4c11.2,0,18-11.2,18-22V221
                c0-2.4,1.6-4,4-4s4,1.6,4,4v112C444,347.8,434.4,363,418,363z"/>
            <path d="M244,331h-16c-7.2,0-12-6.8-12-13.2v-128c0-6.4,4.8-10.8,12-10.8h16c7.2,0,12,4.4,12,10.8v128C256,324.2,251.2,331,244,331z
                M228,187c-1.6,0-4,0.4-4,2.8v128c0,2.4,2,5.2,4,5.2h16c2,0,4-2.8,4-5.2v-128c0-2.4-2.4-2.8-4-2.8H228z"/>
            <path d="M136,331h-16c-7.2,0-12-6.8-12-13.2v-128c0-6.4,4.8-10.8,12-10.8h16c7.2,0,12,4.4,12,10.8v128C148,324.2,143.2,331,136,331z
                M120,187c-1.6,0-4,0.4-4,2.8v128c0,2.4,2,5.2,4,5.2h16c2,0,4-2.8,4-5.2v-128c0-2.4-2.4-2.8-4-2.8H120z"/>
            <path d="M352,331h-16c-7.2,0-12-6.8-12-13.2v-128c0-6.4,4.8-10.8,12-10.8h16c7.2,0,12,4.4,12,10.8v128C364,324.2,359.2,331,352,331z
                M336,187c-1.6,0-4,0.4-4,2.8v128c0,2.4,2,5.2,4,5.2h16c2,0,4-2.8,4-5.2v-128c0-2.4-2.4-2.8-4-2.8H336z"/>
        </symbol>

    </defs>
</svg>