<svg aria-hidden="true" style="position: absolute; width: 0; height: 0; overflow: hidden;" version="1.1"
    xmlns="http://www.w3.org/2000/svg" xmlns:xlink="http://www.w3.org/1999/xlink">
    <defs>
        <symbol id="icon-telegram" viewBox="4 4 25 25">
            <path d="M16 5.12c6.009 0 10.88 4.871 10.88 10.88s-4.871 10.88-10.88 10.88-10.88-4.871-10.88-10.88 4.871-10.88 10.88-10.88zM19.753 20.435c0.2-0.614 1.138-6.733 1.253-7.939 0.035-0.365-0.081-0.608-0.306-0.716-0.273-0.131-0.678-0.066-1.148 0.104-0.644 0.232-8.881 3.729-9.357 3.932-0.451 0.192-0.878 0.401-0.878 0.704 0 0.213 0.127 0.333 0.475 0.457 0.362 0.129 1.275 0.406 1.814 0.554 0.519 0.143 1.11 0.019 1.441-0.187 0.351-0.218 4.402-2.929 4.692-3.166s0.522 0.067 0.285 0.305c-0.237 0.237-3.018 2.936-3.385 3.31-0.445 0.454-0.129 0.924 0.17 1.112 0.341 0.215 2.794 1.86 3.164 2.124s0.744 0.383 1.087 0.383c0.343-0.001 0.523-0.453 0.694-0.977z"></path>
        </symbol>

        <symbol id="icon-mail" viewBox="-1 -1 35 35">
            <path d="M16 0.64c-8.483 0-15.36 6.877-15.36 15.36s6.877 15.36 15.36 15.36 15.36-6.877 15.36-15.36-6.877-15.36-15.36-15.36zM9.97 11.2h12.032c0.638 0 0.309 0.819-0.038 1.029-0.347 0.208-5.152 3.115-5.333 3.222s-0.411 0.16-0.645 0.16c-0.008 0-0.017 0-0.026 0-0.227 0-0.439-0.059-0.624-0.164l0.006 0.003-5.334-3.222c-0.347-0.21-0.675-1.029-0.038-1.029zM22.4 20c0 0.336-0.403 0.8-0.71 0.8h-11.379c-0.307 0-0.71-0.464-0.71-0.8v-5.835c0-0.147-0.003-0.338 0.275-0.176l5.467 3.224c0.164 0.102 0.363 0.162 0.576 0.162 0.024 0 0.047-0.001 0.071-0.002l-0.003 0c0.234 0 0.403-0.018 0.645-0.16l5.494-3.222c0.278-0.163 0.275 0.029 0.275 0.176v5.834z"></path>
        </symbol>

        <symbol id="icon-github" viewBox="0 0 32 32">
            <path d="M14.533 2.8c-6.133 0.667-11.067 5.6-11.733 11.6-0.667 6.267 2.933 11.867 8.4 14 0.4 0.133 0.8-0.133 0.8-0.667v-2.133c0 0-0.533 0.133-1.2 0.133-1.867 0-2.667-1.6-2.8-2.533-0.133-0.533-0.4-0.933-0.8-1.333-0.4-0.133-0.533-0.133-0.533-0.267 0-0.267 0.4-0.267 0.533-0.267 0.8 0 1.467 0.933 1.733 1.333 0.667 1.067 1.467 1.333 1.867 1.333 0.533 0 0.933-0.133 1.2-0.267 0.133-0.933 0.533-1.867 1.333-2.4-3.067-0.667-5.333-2.4-5.333-5.333 0-1.467 0.667-2.933 1.6-4-0.133-0.267-0.267-0.933-0.267-1.867 0-0.533 0-1.333 0.4-2.133 0 0 1.867 0 3.733 1.733 0.667-0.267 1.6-0.4 2.533-0.4s1.867 0.133 2.667 0.4c1.733-1.733 3.733-1.733 3.733-1.733 0.267 0.8 0.267 1.6 0.267 2.133 0 1.067-0.133 1.6-0.267 1.867 0.933 1.067 1.6 2.4 1.6 4 0 2.933-2.267 4.667-5.333 5.333 0.8 0.667 1.333 1.867 1.333 3.067v3.467c0 0.4 0.4 0.8 0.933 0.667 4.933-2 8.4-6.8 8.4-12.4 0-8-6.8-14.267-14.8-13.333z"></path>
        </symbol>

        <symbol id="icon-linkedin" viewBox="0 0 32 32">
            <path d="M16 3.2c-7.069 0-12.8 5.731-12.8 12.8s5.731 12.8 12.8 12.8 12.8-5.731 12.8-12.8c0-7.069-5.731-12.8-12.8-12.8zM11.196 8.963c0.898 0 1.497 0.598 1.497 1.396s-0.598 1.396-1.596 1.396c-0.898 0.001-1.497-0.598-1.497-1.396s0.598-1.396 1.596-1.396zM12.8 21.333h-3.2v-8.533h3.2v8.533zM23.467 21.333h-3.012v-4.663c0-1.29-0.803-1.587-1.104-1.587s-1.306 0.198-1.306 1.587c0 0.198 0 4.663 0 4.663h-3.111v-8.533h3.113v1.19c0.401-0.694 1.204-1.19 2.71-1.19s2.71 1.19 2.71 3.87v4.663z"></path>
        </symbol>

        <symbol id="hero-hat" viewBox="0 0 20 20">
            <path d="M4 14.5V11.165L8.00843 13.4663C9.24174 14.1743 10.7583 14.1743 11.9916 13.4663L16 11.165V14.5C16 14.6326 15.9473 14.7598 15.8536 14.8536L15.852 14.8551L15.8496 14.8574L15.8428 14.8642L15.8201 14.8859C15.801 14.9039 15.7741 14.9288 15.7394 14.9596C15.6701 15.0213 15.5696 15.1067 15.4389 15.2079C15.1777 15.41 14.7948 15.6761 14.2978 15.9412C13.3033 16.4716 11.8479 17 10 17C8.15211 17 6.69675 16.4716 5.70221 15.9412C5.20518 15.6761 4.82226 15.41 4.5611 15.2079C4.43043 15.1067 4.32994 15.0213 4.26059 14.9596C4.22591 14.9288 4.19898 14.9039 4.17992 14.8859L4.15724 14.8642C4.05938 14.7684 4 14.6378 4 14.5Z" fill="#F07927"/>
            <path d="M18.7489 8.43369L11.4937 12.599C10.5687 13.1301 9.4313 13.1301 8.50632 12.599L2 8.86367L2 13.5C2 13.7761 1.77614 14 1.5 14C1.22386 14 1 13.7761 1 13.5V8.00008C1 7.81007 1.10598 7.64474 1.26206 7.56014L8.5063 3.40104C8.85317 3.20189 9.22992 3.07743 9.61413 3.02764C9.73586 3.01187 9.85834 3.00359 9.98086 3.00281C10.3739 3.0003 10.7674 3.07496 11.1377 3.22679C11.2591 3.27658 11.3781 3.33466 11.4937 3.40104L18.749 7.56646C18.9042 7.65561 19 7.82101 19 8.00008C19 8.17914 18.9042 8.34454 18.7489 8.43369Z" fill="#F07927"/>
        </symbol>

        <symbol id="arrow-down" viewBox="0 0 32 32">
            <path d="M0.256 8.606c0-0.269 0.106-0.544 0.313-0.75 0.412-0.412 1.087-0.412 1.5 0l14.119 14.119 13.913-13.912c0.413-0.412 1.087-0.412 1.5 0s0.413 1.088 0 1.5l-14.663 14.669c-0.413 0.413-1.088 0.413-1.5 0l-14.869-14.869c-0.213-0.213-0.313-0.481-0.313-0.756z" />
        </symbol>

        <symbol id="arrow-up" viewBox="0 0 32 32">
            <path d="M0.256 23.481c0 0.269 0.106 0.544 0.313 0.75 0.412 0.413 1.087 0.413 1.5 0l14.119-14.119 13.913 13.912c0.413 0.413 1.087 0.413 1.5 0s0.413-1.087 0-1.5l-14.663-14.669c-0.413-0.412-1.088-0.412-1.5 0l-14.869 14.869c-0.213 0.212-0.313 0.481-0.313 0.756z"/>
        </symbol>

        <symbol id="cross" viewBox="0 0 30 32">
            <path
                d="M16.219 14.826l4.928-4.923c0.156-0.177 0.252-0.412 0.252-0.668 0-0.559-0.453-1.013-1.013-1.013-0.257 0-0.492 0.096-0.67 0.253l0.001-0.001-4.927 4.874-4.959-4.955c-0.175-0.146-0.402-0.235-0.649-0.235-0.56 0-1.014 0.454-1.014 1.014 0 0.247 0.089 0.474 0.236 0.65l-0.001-0.002 4.948 5.006-4.847 4.782c-0.211 0.187-0.344 0.458-0.344 0.76 0 0.559 0.454 1.013 1.013 1.013 0.303 0 0.574-0.133 0.76-0.343l0.001-0.001 4.836-4.832 4.806 4.801c0.175 0.146 0.402 0.235 0.649 0.235 0.56 0 1.014-0.454 1.014-1.014 0-0.247-0.089-0.474-0.236-0.65l0.001 0.002-4.785-4.751z">
            </path>
        </symbol>
        
        <symbol id="burger-menu" viewBox="0 0 43 32">
            <path 
                d="M0.592 3.556c0-1.146 0.929-2.075 2.075-2.075v0h37.333c1.146 0 2.075 0.929 2.075 2.075s-0.929 2.075-2.075 2.075h-37.333c-1.146 0-2.075-0.929-2.075-2.075v0zM0.592 16.066c0.001-1.145 0.929-2.073 2.075-2.073 0 0 0 0 0 0h37.333c1.119 0.034 2.014 0.949 2.014 2.074s-0.895 2.040-2.011 2.074l-0.003 0h-37.333c-1.146 0-2.075-0.929-2.075-2.075v0zM2.667 26.503c-1.119 0.034-2.014 0.949-2.014 2.074s0.895 2.040 2.011 2.074l0.003 0h37.333c0.018 0.001 0.039 0.001 0.061 0.001 1.146 0 2.075-0.929 2.075-2.075s-0.929-2.075-2.075-2.075c-0.021 0-0.043 0-0.064 0.001l0.003-0h-37.333z">
            </path>
        </symbol>

        <symbol id="beginner" viewBox="0 0 508 508">
            <path style="fill:#F4EFEF;" d="M472,223c1.2,0,2,0.8,2,2v101.6h2c14.4,0,26-11.6,26-26v-96c0-14.4-12.4-26-26.8-26h-4.4
                c-1.2,0-2-0.8-2-2v-6c0-27.6-22.8-49.2-50-49.2H54c-27.6,0-48,19.6-48,47.2V337c0,27.6,21.6,49.6,48.8,49.6H420
                c27.6,0,50-22.4,50-49.6v-8.4V225C470,223.8,470.8,223,472,223z M436,221.4l2,112.4c0,14.4-9.2,28-23.6,28h-356
                c-14.4,0-24.4-14-24.4-28.4V173c0-14.4,10-23.2,24.4-23.2h356c14.4,0,22,6,22,20.4L436,221.4z"/>
            <path style="fill:#54B265;" d="M414,153.4H58c-12,0-20.4,7.2-20.4,19.2V333c0,12,8,24.4,20.4,24.4h356.4c12,0,25.6-10.8,25.6-22.8
                v-160C440,162.6,426.4,153.4,414,153.4z M146,319.4c0,5.6-4.4,10-10,10h-16c-5.6,0-10-4.4-10-10v-128c0-5.6,4.4-10,10-10h16
                c5.6,0,10,4.4,10,10V319.4z"/>
            <path style="fill:#F4EFEF;" d="M142,191.4c0-3.2-2.8-6-6-6h-16c-3.2,0-6,2.8-6,6v128c0,3.2,2.8,6,6,6h16c3.2,0,6-2.8,6-6V191.4z"/>
            <path d="M56.8,392.6C26,392.6,0,367,0,337V168.6c0-29.6,25.2-53.2,57.6-53.2h364.8c30.8,0,55.6,24.8,55.6,55.2v2
                c16.8,0.4,30,14.4,30,32v96c0,17.6-14.4,32-32,32l0,0v4.4c0,30.8-24.8,55.6-55.2,55.6H56.8z M57.6,123.4C29.6,123.4,8,143,8,168.6
                V337c0,26,22.4,47.6,48.8,47.6h364c26,0,47.2-21.6,47.2-47.6v-8.4c0-1.2,0.4-2,1.2-2.8s2-1.2,2.8-1.2h4c13.2,0,24-10.8,24-24v-96
                c0-13.6-10-24-23.2-24l0,0h-3.2c-2.4,0-4-2-4-4l0.4-6c0-26-21.2-47.2-47.6-47.2H57.6z"/>
            <path d="M472,333.4c-2.4,0-4-1.6-4-4v-104c0-2.4,1.6-4,4-4s4,1.6,4,4v104C476,331.8,474.4,333.4,472,333.4z"/>
            <path d="M418,363.4H62c-15.6,0-30-14.8-30-30.4V172.6c0-16,15.2-25.2,30-25.2h356c15.6,0,27.2,11.6,27.2,26.8c0,2.4-1.6,4-4,4
                s-4-1.6-4-4c0-10.8-8-18.8-19.2-18.8H62c-10.8,0-22,6.4-22,17.2V333c0,11.2,11.2,22.4,22,22.4h356.4c11.2,0,18-11.2,18-22v-112
                c0-2.4,1.6-4,4-4s4,1.6,4,4v112C444,348.2,434.4,363.4,418,363.4z"/>
            <path d="M136,331.4h-16c-6.8,0-12-7.2-12-13.2v-128c0-6.4,4.8-10.8,12-10.8h16c7.2,0,12,4.4,12,10.8v128
                C148,324.2,142.8,331.4,136,331.4z M120,187.4c-2,0-4,0.4-4,2.8v128c0,2.4,2,5.2,4,5.2h16c2,0,4-2.8,4-5.2v-128c0-2.4-2-2.8-4-2.8
                H120z"/>
        </symbol>

        <symbol id="intermediate" viewBox="0 0 508 508">
            <path style="fill:#F4EFEF;" d="M472,223c1.2,0,2,0.8,2,2v101.6h2c14.4,0,26-11.6,26-26v-96c0-14.4-12.4-26-26.8-26h-4.4
            c-1.2,0-2-0.8-2-2v-6c0-27.6-22.8-49.2-50-49.2H54c-27.6,0-48,19.6-48,47.2V337c0,27.6,21.6,49.6,48.8,49.6H420
            c27.6,0,50-22.4,50-49.6v-8.4V225C470,223.8,470.8,223,472,223z M436,221l2,112.8c0,14.4-9.2,28-23.6,28h-356
            c-14.4,0-24.4-14-24.4-28.4V173c0-14.4,10-23.2,24.4-23.2h356c14.4,0,22,10.4,22,24.8L436,221z"/>
            <path style="fill:#E07D46;" d="M414,153.4H58c-12,0-20.4,7.2-20.4,19.2V333c0,12,8,24.4,20.4,24.4h356.4c12,0,21.6-10.8,21.6-22.8
                v-160C436,162.6,426.4,153.4,414,153.4z M146,319.4c0,5.6-4.4,10-10,10h-16c-5.6,0-10-4.4-10-10v-128c0-5.6,4.4-10,10-10h16
                c5.6,0,10,4.4,10,10V319.4z M254,319.4c0,5.6-4.4,10-10,10h-16c-5.6,0-10-4.4-10-10v-128c0-5.6,4.4-10,10-10h16c5.6,0,10,4.4,10,10
                V319.4z"/>
            <g>
                <path style="fill:#F4EFEF;" d="M250,191.4c0-3.2-2.8-6-6-6h-16c-3.2,0-6,2.8-6,6v128c0,3.2,2.8,6,6,6h16c3.2,0,6-2.8,6-6V191.4z"/>
                <path style="fill:#F4EFEF;" d="M142,191.4c0-3.2-2.8-6-6-6h-16c-3.2,0-6,2.8-6,6v128c0,3.2,2.8,6,6,6h16c3.2,0,6-2.8,6-6V191.4z"/>
            </g>
            <path d="M56.8,392.6C26,392.6,0,367,0,337V168.6c0-29.6,25.2-53.2,57.6-53.2h364.8c30.8,0,55.6,24.8,55.6,55.2v2
                c16.8,0.8,30,14.4,30,32v96c0,17.6-14.4,32-32,32l0,0v4.4c0,30.8-24.8,55.6-55.2,55.6H56.8z M57.6,123.4C29.6,123.4,8,143,8,168.6
                V337c0,26,22.4,47.6,48.8,47.6h364c26,0,47.2-21.6,47.2-47.6v-8.4c0-1.2,0.4-2,1.2-2.8s2-1.2,2.8-1.2h4c13.2,0,24-10.8,24-24v-96
                c0-13.6-10-24-23.2-24l0,0h-2.4c-2,0-3.6-1.6-4-3.6l-0.4-6c0-26.4-21.2-47.6-47.6-47.6H57.6z"/>
            <path d="M472,333.4c-2.4,0-4-1.6-4-4v-104c0-2.4,1.6-4,4-4s4,1.6,4,4v104C476,331.8,474.4,333.4,472,333.4z"/>
            <path d="M418,363.4H62c-15.6,0-30-14.8-30-30.4V172.6c0-16,15.2-25.2,30-25.2h356c15.6,0,27.2,11.6,27.2,26.8c0,2.4-1.6,4-4,4
                s-4-1.6-4-4c0-10.8-8-18.8-19.2-18.8H62c-10.8,0-22,6.4-22,17.2V333c0,11.2,11.2,22.4,22,22.4h356.4c11.2,0,18-11.2,18-22v-112
                c0-2.4,1.6-4,4-4s4,1.6,4,4v112C444,348.2,434.4,363.4,418,363.4z"/>
            <path d="M244,331.4h-16c-7.2,0-12-6.8-12-13.2v-128c0-6.4,4.8-10.8,12-10.8h16c7.2,0,12,4.4,12,10.8v128
                C256,324.6,251.2,331.4,244,331.4z M228,187.4c-1.6,0-4,0.4-4,2.8v128c0,2.4,2,5.2,4,5.2h16c2,0,4-2.8,4-5.2v-128
                c0-2.4-2.4-2.8-4-2.8H228z"/>
            <path d="M136,331.4h-16c-7.2,0-12-6.8-12-13.2v-128c0-6.4,4.8-10.8,12-10.8h16c7.2,0,12,4.4,12,10.8v128
                C148,324.6,143.2,331.4,136,331.4z M120,187.4c-1.6,0-4,0.4-4,2.8v128c0,2.4,2,5.2,4,5.2h16c2,0,4-2.8,4-5.2v-128
                c0-2.4-2.4-2.8-4-2.8H120z"/>
        </symbol>

        <symbol id="advanced" viewBox="0 0 508 508">
            <path style="fill:#F4EFEF;" d="M472,222.6c1.2,0,2,0.8,2,2v101.6h2c14.4,0,26-11.6,26-26v-96c0-14.4-12.4-26-26.8-26h-4.4
                c-1.2,0-2-0.8-2-2v-6c0-27.6-22.8-49.2-50-49.2H54c-27.6,0-48,19.6-48,46.8v168.4c0,27.6,21.6,49.6,48.8,49.6H420
                c27.6,0,50-22.4,50-49.6v-8.4V224.2C470,223.4,470.8,222.6,472,222.6z M438,220.2V333c0,14.4-9.2,28-23.6,28h-356
                C44,361,34,347,34,332.6V172.2c0-14.4,10-23.2,24.4-23.2h356c14.4,0,24.8,10.4,24.8,24.4L438,220.2z"/>
            <path style="fill:#DF5C4E;" d="M414,153H58c-12,0-20.4,7.2-20.4,19.2v160.4c0,12,8,24.4,20.4,24.4h356.4c12,0,21.6-10.8,21.6-22.8
                v-160C436,162.2,426.4,153,414,153z M146,319c0,5.6-4.4,10-10,10h-16c-5.6,0-10-4.4-10-10V191c0-5.6,4.4-10,10-10h16
                c5.6,0,10,4.4,10,10V319z M254,319c0,5.6-4.4,10-10,10h-16c-5.6,0-10-4.4-10-10V191c0-5.6,4.4-10,10-10h16c5.6,0,10,4.4,10,10V319z
                M362,319c0,5.6-4.4,10-10,10h-16c-5.6,0-10-4.4-10-10V191c0-5.6,4.4-10,10-10h16c5.6,0,10,4.4,10,10V319z"/>
            <g>
                <path style="fill:#F4EFEF;" d="M250,191c0-3.2-2.8-6-6-6h-16c-3.2,0-6,2.8-6,6v128c0,3.2,2.8,6,6,6h16c3.2,0,6-2.8,6-6V191z"/>
                <path style="fill:#F4EFEF;" d="M142,191c0-3.2-2.8-6-6-6h-16c-3.2,0-6,2.8-6,6v128c0,3.2,2.8,6,6,6h16c3.2,0,6-2.8,6-6V191z"/>
                <path style="fill:#F4EFEF;" d="M358,191c0-3.2-2.8-6-6-6h-16c-3.2,0-6,2.8-6,6v128c0,3.2,2.8,6,6,6h16c3.2,0,6-2.8,6-6V191z"/>
            </g>
            <path d="M56.8,392.2C26,392.2,0,366.6,0,336.6V168.2c0-29.6,25.2-52.8,57.6-52.8h364.8c30.8,0,55.6,24.8,55.6,55.2v2
                c16.8,0.4,30,14.4,30,32v96c0,17.6-14.4,32-32,32l0,0v4.4c0,30.8-24.8,55.6-55.2,55.6L56.8,392.2z M57.6,123
                C29.6,123,8,142.6,8,167.8v168.4c0,26,22.4,47.6,48.8,47.6h364c26,0,47.2-21.6,47.2-47.6v-8.4c0-1.2,0.4-2,1.2-2.8
                c0.8-0.8,2-1.2,2.8-1.2h4c13.2,0,24-10.8,24-24v-96c0-13.2-10-24-23.2-24l0,0H474c-2,0-3.6-1.6-4-3.6l-0.4-6
                c0-26.4-21.2-47.6-47.6-47.6H57.6V123z"/>
            <path d="M472,333c-2.4,0-4-1.6-4-4V225c0-2.4,1.6-4,4-4s4,1.6,4,4v104C476,331.4,474.4,333,472,333z"/>
            <path d="M418,363H62c-15.6,0-30-14.8-30-30.4V172.2c0-16,15.2-25.2,30-25.2h356c15.6,0,27.2,11.6,27.2,26.8c0,2.4-1.6,4-4,4
                s-4-1.6-4-4c0-10.8-8-18.8-19.2-18.8H62c-10.8,0-22,6.4-22,17.2v160.4c0,11.2,11.2,22.4,22,22.4h356.4c11.2,0,18-11.2,18-22V221
                c0-2.4,1.6-4,4-4s4,1.6,4,4v112C444,347.8,434.4,363,418,363z"/>
            <path d="M244,331h-16c-7.2,0-12-6.8-12-13.2v-128c0-6.4,4.8-10.8,12-10.8h16c7.2,0,12,4.4,12,10.8v128C256,324.2,251.2,331,244,331z
                M228,187c-1.6,0-4,0.4-4,2.8v128c0,2.4,2,5.2,4,5.2h16c2,0,4-2.8,4-5.2v-128c0-2.4-2.4-2.8-4-2.8H228z"/>
            <path d="M136,331h-16c-7.2,0-12-6.8-12-13.2v-128c0-6.4,4.8-10.8,12-10.8h16c7.2,0,12,4.4,12,10.8v128C148,324.2,143.2,331,136,331z
                M120,187c-1.6,0-4,0.4-4,2.8v128c0,2.4,2,5.2,4,5.2h16c2,0,4-2.8,4-5.2v-128c0-2.4-2.4-2.8-4-2.8H120z"/>
            <path d="M352,331h-16c-7.2,0-12-6.8-12-13.2v-128c0-6.4,4.8-10.8,12-10.8h16c7.2,0,12,4.4,12,10.8v128C364,324.2,359.2,331,352,331z
                M336,187c-1.6,0-4,0.4-4,2.8v128c0,2.4,2,5.2,4,5.2h16c2,0,4-2.8,4-5.2v-128c0-2.4-2.4-2.8-4-2.8H336z"/>
        </symbol>

    </defs>
</svg>