<svg aria-hidden="true" style="position: absolute; width: 0; height: 0; overflow: hidden;" version="1.1"
    xmlns="http://www.w3.org/2000/svg" xmlns:xlink="http://www.w3.org/1999/xlink">
    <defs>
        <symbol id="icon-telegram" viewBox="4 4 25 25">
            <path d="M16 5.12c6.009 0 10.88 4.871 10.88 10.88s-4.871 10.88-10.88 10.88-10.88-4.871-10.88-10.88 4.871-10.88 10.88-10.88zM19.753 20.435c0.2-0.614 1.138-6.733 1.253-7.939 0.035-0.365-0.081-0.608-0.306-0.716-0.273-0.131-0.678-0.066-1.148 0.104-0.644 0.232-8.881 3.729-9.357 3.932-0.451 0.192-0.878 0.401-0.878 0.704 0 0.213 0.127 0.333 0.475 0.457 0.362 0.129 1.275 0.406 1.814 0.554 0.519 0.143 1.11 0.019 1.441-0.187 0.351-0.218 4.402-2.929 4.692-3.166s0.522 0.067 0.285 0.305c-0.237 0.237-3.018 2.936-3.385 3.31-0.445 0.454-0.129 0.924 0.17 1.112 0.341 0.215 2.794 1.86 3.164 2.124s0.744 0.383 1.087 0.383c0.343-0.001 0.523-0.453 0.694-0.977z"></path>
        </symbol>

        <symbol id="icon-mail" viewBox="-1 -1 35 35">
            <path d="M16 0.64c-8.483 0-15.36 6.877-15.36 15.36s6.877 15.36 15.36 15.36 15.36-6.877 15.36-15.36-6.877-15.36-15.36-15.36zM9.97 11.2h12.032c0.638 0 0.309 0.819-0.038 1.029-0.347 0.208-5.152 3.115-5.333 3.222s-0.411 0.16-0.645 0.16c-0.008 0-0.017 0-0.026 0-0.227 0-0.439-0.059-0.624-0.164l0.006 0.003-5.334-3.222c-0.347-0.21-0.675-1.029-0.038-1.029zM22.4 20c0 0.336-0.403 0.8-0.71 0.8h-11.379c-0.307 0-0.71-0.464-0.71-0.8v-5.835c0-0.147-0.003-0.338 0.275-0.176l5.467 3.224c0.164 0.102 0.363 0.162 0.576 0.162 0.024 0 0.047-0.001 0.071-0.002l-0.003 0c0.234 0 0.403-0.018 0.645-0.16l5.494-3.222c0.278-0.163 0.275 0.029 0.275 0.176v5.834z"></path>
        </symbol>

        <symbol id="icon-github" viewBox="0 0 32 32">
            <path d="M14.533 2.8c-6.133 0.667-11.067 5.6-11.733 11.6-0.667 6.267 2.933 11.867 8.4 14 0.4 0.133 0.8-0.133 0.8-0.667v-2.133c0 0-0.533 0.133-1.2 0.133-1.867 0-2.667-1.6-2.8-2.533-0.133-0.533-0.4-0.933-0.8-1.333-0.4-0.133-0.533-0.133-0.533-0.267 0-0.267 0.4-0.267 0.533-0.267 0.8 0 1.467 0.933 1.733 1.333 0.667 1.067 1.467 1.333 1.867 1.333 0.533 0 0.933-0.133 1.2-0.267 0.133-0.933 0.533-1.867 1.333-2.4-3.067-0.667-5.333-2.4-5.333-5.333 0-1.467 0.667-2.933 1.6-4-0.133-0.267-0.267-0.933-0.267-1.867 0-0.533 0-1.333 0.4-2.133 0 0 1.867 0 3.733 1.733 0.667-0.267 1.6-0.4 2.533-0.4s1.867 0.133 2.667 0.4c1.733-1.733 3.733-1.733 3.733-1.733 0.267 0.8 0.267 1.6 0.267 2.133 0 1.067-0.133 1.6-0.267 1.867 0.933 1.067 1.6 2.4 1.6 4 0 2.933-2.267 4.667-5.333 5.333 0.8 0.667 1.333 1.867 1.333 3.067v3.467c0 0.4 0.4 0.8 0.933 0.667 4.933-2 8.4-6.8 8.4-12.4 0-8-6.8-14.267-14.8-13.333z"></path>
        </symbol>

        <symbol id="icon-linkedin" viewBox="0 0 32 32">
            <path d="M16 3.2c-7.069 0-12.8 5.731-12.8 12.8s5.731 12.8 12.8 12.8 12.8-5.731 12.8-12.8c0-7.069-5.731-12.8-12.8-12.8zM11.196 8.963c0.898 0 1.497 0.598 1.497 1.396s-0.598 1.396-1.596 1.396c-0.898 0.001-1.497-0.598-1.497-1.396s0.598-1.396 1.596-1.396zM12.8 21.333h-3.2v-8.533h3.2v8.533zM23.467 21.333h-3.012v-4.663c0-1.29-0.803-1.587-1.104-1.587s-1.306 0.198-1.306 1.587c0 0.198 0 4.663 0 4.663h-3.111v-8.533h3.113v1.19c0.401-0.694 1.204-1.19 2.71-1.19s2.71 1.19 2.71 3.87v4.663z"></path>
        </symbol>

        <symbol id="arrow" viewBox="0 0 34 32">
            <path
                d="M21.943 15.703c0.162 0.165 0.261 0.391 0.261 0.64s-0.1 0.475-0.262 0.64l-9.211 9.211c-0.165 0.162-0.391 0.261-0.64 0.261s-0.475-0.1-0.64-0.262l-0.434-0.434c-0.162-0.165-0.261-0.391-0.261-0.64s0.1-0.475 0.261-0.64l8.137-8.137-8.137-8.114c-0.162-0.165-0.261-0.391-0.261-0.64s0.1-0.475 0.261-0.64l0.434-0.434c0.165-0.162 0.391-0.261 0.64-0.261s0.475 0.1 0.64 0.261l-0-0 9.189 9.211z">
            </path>
        </symbol>
        <symbol id="cross" viewBox="0 0 30 32">
            <path
                d="M16.219 14.826l4.928-4.923c0.156-0.177 0.252-0.412 0.252-0.668 0-0.559-0.453-1.013-1.013-1.013-0.257 0-0.492 0.096-0.67 0.253l0.001-0.001-4.927 4.874-4.959-4.955c-0.175-0.146-0.402-0.235-0.649-0.235-0.56 0-1.014 0.454-1.014 1.014 0 0.247 0.089 0.474 0.236 0.65l-0.001-0.002 4.948 5.006-4.847 4.782c-0.211 0.187-0.344 0.458-0.344 0.76 0 0.559 0.454 1.013 1.013 1.013 0.303 0 0.574-0.133 0.76-0.343l0.001-0.001 4.836-4.832 4.806 4.801c0.175 0.146 0.402 0.235 0.649 0.235 0.56 0 1.014-0.454 1.014-1.014 0-0.247-0.089-0.474-0.236-0.65l0.001 0.002-4.785-4.751z">
            </path>
        </symbol>
        <symbol id="arrow-right" viewBox="0 0 18 32">
            <path
                d="M17.657 15.035l-14.862-14.16c-0.239-0.228-0.563-0.368-0.92-0.368s-0.681 0.14-0.921 0.369l0.001-0-0.016 0.016c-0.235 0.224-0.382 0.539-0.382 0.889s0.146 0.665 0.381 0.889l0 0 13.995 13.333-13.995 13.328c-0.236 0.224-0.383 0.54-0.383 0.89s0.147 0.666 0.382 0.889l0.001 0 0.016 0.016c0.239 0.228 0.563 0.368 0.92 0.368s0.681-0.14 0.921-0.369l-0.001 0 14.862-14.16c0.255-0.243 0.413-0.586 0.413-0.965s-0.158-0.722-0.413-0.965l-0-0z">
            </path>
        </symbol>
        <symbol id="arrow-left" viewBox="0 0 18 32">
            <path
                d="M0.484 16.965l14.862 14.16c0.239 0.228 0.563 0.368 0.92 0.368s0.681-0.14 0.921-0.369l-0.001 0 0.016-0.016c0.236-0.224 0.382-0.54 0.382-0.89s-0.147-0.666-0.382-0.889l-0.001-0-13.995-13.333 13.995-13.327c0.236-0.224 0.382-0.54 0.382-0.89s-0.147-0.666-0.382-0.889l-0.001-0-0.016-0.016c-0.239-0.228-0.563-0.368-0.92-0.368s-0.681 0.14-0.921 0.369l0.001-0-14.862 14.16c-0.255 0.243-0.413 0.586-0.413 0.965s0.158 0.722 0.413 0.965l0.001 0z">
            </path>
        </symbol>
        <symbol id="star" viewBox="0 0 34 32">
            <path fill="#ffe550" style="fill: var(--color1, #ffe550)"
                d="M15.427 1.047c0.584-1.385 2.577-1.385 3.161 0l3.45 8.166c0.246 0.582 0.804 0.98 1.445 1.032l8.956 0.706c1.517 0.12 2.133 1.983 0.976 2.959l-6.823 5.755c-0.367 0.309-0.598 0.768-0.598 1.281 0 0.138 0.017 0.273 0.048 0.401l-0.002-0.011 2.085 8.604c0.352 1.457-1.259 2.609-2.557 1.829l-7.668-4.612c-0.255-0.155-0.563-0.247-0.892-0.247s-0.638 0.092-0.9 0.251l0.008-0.004-7.668 4.612c-1.301 0.78-2.909-0.372-2.557-1.829l2.085-8.604c0.029-0.117 0.046-0.251 0.046-0.39 0-0.513-0.231-0.973-0.596-1.279l-0.003-0.002-6.823-5.753c-1.157-0.976-0.54-2.841 0.976-2.961l8.956-0.704c0.65-0.050 1.194-0.456 1.44-1.021l0.004-0.011 3.45-8.168z">
            </path>
        </symbol>
        <symbol id="burger-menu" viewBox="0 0 43 32">
            <path 
                d="M0.592 3.556c0-1.146 0.929-2.075 2.075-2.075v0h37.333c1.146 0 2.075 0.929 2.075 2.075s-0.929 2.075-2.075 2.075h-37.333c-1.146 0-2.075-0.929-2.075-2.075v0zM0.592 16.066c0.001-1.145 0.929-2.073 2.075-2.073 0 0 0 0 0 0h37.333c1.119 0.034 2.014 0.949 2.014 2.074s-0.895 2.040-2.011 2.074l-0.003 0h-37.333c-1.146 0-2.075-0.929-2.075-2.075v0zM2.667 26.503c-1.119 0.034-2.014 0.949-2.014 2.074s0.895 2.040 2.011 2.074l0.003 0h37.333c0.018 0.001 0.039 0.001 0.061 0.001 1.146 0 2.075-0.929 2.075-2.075s-0.929-2.075-2.075-2.075c-0.021 0-0.043 0-0.064 0.001l0.003-0h-37.333z">
            </path>
        </symbol>
        <symbol id="touch" viewBox="0 0 32 32">
            <path fill="#7eb101" style="fill: var(--color2, #7eb101)"
                d="M15.504 1.333c2.023 0 3.751 0.706 5.185 2.118 1.433 1.411 2.151 3.129 2.151 5.151 0 1.156-0.25 2.245-0.75 3.268-0.515 1.041-1.23 1.91-2.101 2.588l-0.017 0.012h-1.133v-1.667c0.627-0.495 1.129-1.12 1.47-1.836l0.013-0.031c0.326-0.677 0.517-1.472 0.517-2.311 0-0.008-0-0.016-0-0.024v0.001c0-1.467-0.523-2.712-1.567-3.734s-2.301-1.534-3.768-1.534c-1.466 0-2.723 0.511-3.767 1.534-1.045 1.022-1.567 2.267-1.567 3.734 0 0.822 0.172 1.6 0.517 2.334 0.355 0.747 0.857 1.372 1.473 1.859l0.011 0.008v2.401c-1.228-0.633-2.224-1.564-2.916-2.702l-0.018-0.032c-0.67-1.087-1.067-2.403-1.067-3.813 0-0.019 0-0.039 0-0.058l-0 0.003c0-2.022 0.717-3.74 2.151-5.151s3.162-2.118 5.184-2.118zM14.237 29.34c-0.378 0-0.734-0.072-1.067-0.216-0.337-0.146-0.624-0.342-0.867-0.584l-6.868-6.868 1.866-1.934c0.311-0.31 0.661-0.55 1.050-0.716 0.214-0.095 0.464-0.151 0.727-0.151 0.174 0 0.343 0.024 0.503 0.070l-0.013-0.003 2.601 0.6v-10.869c0-0.934 0.322-1.723 0.967-2.368s1.433-0.967 2.367-0.967c0.934 0 1.723 0.323 2.368 0.967s0.967 1.433 0.967 2.368v5.734h0.866c0.111 0 0.211 0.022 0.3 0.067 0.090 0.044 0.19 0.088 0.3 0.133l4.935 2.401c0.533 0.244 0.927 0.639 1.183 1.183s0.328 1.106 0.217 1.684l-1.2 7.268c-0.106 0.647-0.446 1.2-0.929 1.58l-0.005 0.004c-0.462 0.384-1.061 0.616-1.714 0.616-0.007 0-0.013-0-0.020-0h-8.534zM13.97 27.34h9.369l1.433-8.302-6.101-3.034h-1.833v-7.335c0-0.4-0.123-0.723-0.367-0.967s-0.567-0.367-0.967-0.367-0.722 0.123-0.966 0.367c-0.245 0.244-0.367 0.567-0.367 0.967v13.303l-5.134-1.1-0.767 0.766 5.701 5.701zM23.34 27.34v0z">
            </path>
        </symbol>
        <symbol id="rocket" viewBox="0 0 32 32">
            <path fill="#7eb101" style="fill: var(--color2, #7eb101)"
                d="M7.235 13.636l3.535 1.5c0.4-0.8 0.827-1.588 1.283-2.367s0.939-1.522 1.45-2.235l-2.634-0.533-3.635 3.634zM12.37 16.337l4.434 4.435c1.383-0.632 2.553-1.289 3.664-2.028l-0.096 0.060c1.11-0.733 2.011-1.444 2.701-2.134 1.8-1.8 3.123-3.646 3.967-5.535 0.845-1.889 1.3-4.023 1.367-6.402-2.379 0.067-4.512 0.523-6.402 1.367s-3.734 2.168-5.534 3.968c-0.69 0.689-1.4 1.589-2.135 2.701-0.678 1.014-1.334 2.184-1.899 3.405l-0.067 0.162zM20.005 13.136c-0.444-0.444-0.667-0.994-0.667-1.65 0-0.655 0.223-1.205 0.667-1.65 0.444-0.444 0.994-0.666 1.65-0.666s1.206 0.222 1.65 0.666c0.444 0.445 0.667 0.995 0.667 1.65 0 0.656-0.223 1.206-0.667 1.65s-0.994 0.667-1.65 0.667-1.206-0.222-1.65-0.667zM19.505 25.906l3.634-3.634-0.533-2.635c-0.711 0.512-1.456 0.995-2.234 1.45-0.778 0.456-1.567 0.884-2.368 1.284l1.5 3.534zM30.374 2.768c0.2 3.023-0.178 5.778-1.134 8.268-0.955 2.491-2.534 4.835-4.734 7.036l-0.067 0.066-0.066 0.067 0.733 3.668c0.067 0.333 0.050 0.655-0.050 0.966s-0.272 0.59-0.517 0.834l-5.701 5.734-2.834-6.602-5.668-5.668-6.602-2.834 5.735-5.701c0.244-0.244 0.522-0.417 0.833-0.517s0.633-0.116 0.967-0.050l3.667 0.734c0.019-0.020 0.041-0.036 0.066-0.049l0.001-0.001c0.026-0.014 0.048-0.030 0.067-0.050l0-0c2.201-2.201 4.545-3.785 7.035-4.751 2.49-0.967 5.245-1.35 8.269-1.15zM5.968 21.172c0.777-0.778 1.727-1.173 2.851-1.184 1.122-0.010 2.072 0.373 2.851 1.15 0.777 0.778 1.16 1.728 1.15 2.851-0.011 1.123-0.406 2.073-1.184 2.851-0.577 0.578-1.472 1.056-2.684 1.434s-3.029 0.733-5.451 1.066c0.333-2.423 0.683-4.245 1.050-5.467s0.839-2.124 1.417-2.701zM7.369 22.606c-0.311 0.333-0.59 0.856-0.834 1.567s-0.455 1.622-0.633 2.734c1.111-0.178 2.022-0.389 2.734-0.633 0.711-0.245 1.234-0.523 1.567-0.834 0.422-0.377 0.639-0.85 0.65-1.416 0.001-0.018 0.001-0.040 0.001-0.061 0-0.555-0.223-1.058-0.584-1.424l0 0c-0.366-0.361-0.869-0.584-1.424-0.584-0.021 0-0.043 0-0.064 0.001l0.003-0c-0.565 0.001-1.071 0.252-1.414 0.648l-0.002 0.002z">
            </path>
        </symbol>
        <symbol id="logo" viewBox="0 0 41 32">
            <path fill="#ffe550" style="fill: var(--color1, #ffe550)"
                d="M14.143 6.46c1.010-1.982 3.836-1.982 4.846 0l1.28 2.51c0.395 0.763 1.119 1.309 1.98 1.45l0.016 0.002 2.772 0.442c2.196 0.35 3.070 3.049 1.497 4.625l-1.978 1.983c-0.493 0.494-0.798 1.177-0.798 1.93 0 0.15 0.012 0.298 0.035 0.442l-0.002-0.016 0.437 2.773c0.346 2.2-1.94 3.868-3.92 2.858l-2.511-1.278c-0.358-0.186-0.783-0.296-1.232-0.296s-0.874 0.109-1.247 0.303l0.015-0.007-2.511 1.278c-1.98 1.009-4.267-0.658-3.92-2.858l0.437-2.773c0.021-0.128 0.033-0.275 0.033-0.426 0-0.753-0.305-1.436-0.798-1.93l0 0-1.978-1.983c-1.572-1.576-0.698-4.276 1.497-4.625l2.772-0.441c0.877-0.144 1.601-0.689 1.989-1.438l0.007-0.015 1.28-2.51z">
            </path>
            <path fill="#2c2c2c" style="fill: var(--color3, #2c2c2c)"
                d="M1.116 20.362l-0.021 0.005c0.002 0.074-0.001 0.374-0.011 0.9-0.003 0.524-0.004 0.868-0.002 1.032 0 0.157-0.004 0.285-0.010 0.384l0.001 0.336c-0 0.104-0.007 0.207-0.021 0.308l0.001-0.012-0.018 0.206c-0.014 0.13-0.042 0.201-0.084 0.211-0.092 0.022-0.235-0.049-0.431-0.212-0.197-0.17-0.31-0.319-0.34-0.447s-0.038-1.060-0.023-2.798c0.021-1.74-0.026-2.884-0.14-3.433-0.011-0.035-0.017-0.075-0.017-0.116 0-0.056 0.011-0.11 0.031-0.158l-0.001 0.003c0.036-0.166 0.219-0.321 0.55-0.467 0.338-0.147 0.843-0.3 1.514-0.459 0.678-0.16 1.216-0.25 1.614-0.27 0.405-0.021 0.623 0.032 0.652 0.16 0.021 0.085-0.025 0.159-0.137 0.223s-0.211 0.117-0.298 0.16c0.121-0.039 0.006 0.008-0.109 0.054l-0.239 0.085c-0.145 0.049-0.279 0.096-0.403 0.14-0.126 0.037-0.288 0.090-0.488 0.16-0.193 0.068-0.372 0.133-0.536 0.194-0.166 0.054-0.39 0.133-0.671 0.237s-0.463 0.17-0.546 0.197c0.012 0.020 0.023 0.050 0.033 0.093 0.079 0.332 0.122 1.13 0.129 2.392 0.443-0.082 0.911-0.204 1.402-0.366 0.498-0.162 0.804-0.257 0.917-0.284 0.269-0.063 0.416-0.039 0.443 0.074 0.052 0.22-0.212 0.476-0.791 0.77-0.572 0.293-1.222 0.525-1.95 0.697zM8.033 18.411c-0.058-0.247-0.153-0.465-0.282-0.66l0.005 0.008c-0.13-0.201-0.281-0.334-0.452-0.398-0.455 0.25-0.786 0.729-0.992 1.435-0.201 0.698-0.236 1.319-0.108 1.865s0.343 0.854 0.644 0.924c0.485-0.219 0.834-0.668 1.046-1.346 0.218-0.687 0.265-1.297 0.139-1.828zM5.269 19.166c0.117-0.611 0.33-1.14 0.642-1.588 0.318-0.457 0.684-0.734 1.102-0.833 0.423-0.1 0.819-0.003 1.187 0.291 0.366 0.287 0.61 0.689 0.732 1.206 0.121 0.51 0.121 1.063 0.001 1.66-0.122 0.602-0.372 1.131-0.72 1.58l0.006-0.009c-0.349 0.449-0.767 0.731-1.254 0.846-0.361 0.086-0.7-0.010-1.019-0.286s-0.538-0.669-0.658-1.179c-0.123-0.517-0.129-1.080-0.019-1.689zM12.833 17.274c-0.058-0.247-0.153-0.465-0.282-0.66l0.005 0.008c-0.129-0.201-0.281-0.334-0.452-0.398-0.455 0.25-0.786 0.728-0.992 1.434-0.201 0.698-0.236 1.32-0.107 1.865 0.129 0.546 0.343 0.854 0.643 0.925 0.486-0.22 0.834-0.668 1.047-1.347 0.218-0.687 0.265-1.296 0.138-1.828zM10.070 18.029c0.117-0.611 0.331-1.14 0.642-1.588 0.318-0.457 0.684-0.734 1.102-0.833 0.423-0.1 0.82-0.004 1.188 0.291 0.366 0.287 0.61 0.689 0.732 1.206 0.121 0.51 0.121 1.063 0.001 1.66-0.122 0.601-0.372 1.131-0.72 1.579l0.006-0.009c-0.349 0.449-0.767 0.731-1.254 0.847-0.361 0.085-0.7-0.010-1.018-0.286s-0.538-0.669-0.659-1.178c-0.122-0.517-0.129-1.080-0.019-1.689zM17.839 11.042c0.113-0.027 0.276 0.047 0.489 0.221 0.218 0.165 0.349 0.34 0.392 0.524s0.079 0.729 0.107 1.634c0.026 0.898 0.031 1.836 0.015 2.812-0.020 2.188-0.111 3.301-0.273 3.34-0.098 0.023-0.223-0.011-0.371-0.103-0.143-0.101-0.226-0.197-0.247-0.289s-0.041-0.282-0.057-0.57c-0.524 0.872-1.045 1.369-1.561 1.491-0.311 0.074-0.626-0.001-0.948-0.225-0.314-0.225-0.508-0.489-0.579-0.794-0.105-0.439-0.111-0.986-0.020-1.644 0.105-0.711 0.329-1.351 0.651-1.929l-0.015 0.028c0.327-0.601 0.742-0.961 1.243-1.079 0.502-0.119 0.923 0.099 1.263 0.654 0.006-1.586-0.077-2.818-0.247-3.698-0.050-0.212 0.002-0.337 0.158-0.374zM17.907 16.533c-0.091-0.382-0.234-0.689-0.431-0.919-0.188-0.232-0.375-0.326-0.559-0.282-0.303 0.072-0.57 0.333-0.799 0.783-0.221 0.428-0.381 0.926-0.454 1.452l-0.003 0.024c-0.070 0.525-0.063 0.964 0.021 1.318 0.025 0.122 0.103 0.221 0.208 0.275l0.002 0.001c0.067 0.035 0.145 0.055 0.229 0.055 0.045 0 0.089-0.006 0.13-0.017l-0.004 0.001c0.276-0.065 0.599-0.351 0.972-0.858 0.379-0.509 0.611-1.057 0.696-1.646l0.002-0.135-0.012-0.052zM24.671 15.896c0.137 0.581-0.009 1.131-0.438 1.652-0.431 0.513-0.985 0.849-1.663 1.010-0.671 0.159-1.266 0.117-1.786-0.127-0.522-0.25-0.819-0.532-0.892-0.843-0.051-0.212-0.012-0.334 0.115-0.364 0.113-0.027 0.375 0.090 0.788 0.352 0.156 0.090 0.352 0.163 0.589 0.219 0.244 0.055 0.486 0.054 0.726-0.004 0.495-0.117 0.902-0.348 1.223-0.693 0.329-0.347 0.457-0.669 0.387-0.966-0.045-0.191-0.23-0.406-0.554-0.643-0.302-0.223-0.645-0.435-1.004-0.619l-0.042-0.020c-0.399-0.215-0.739-0.435-1.061-0.677l0.021 0.015c-0.326-0.244-0.511-0.455-0.553-0.632-0.026-0.112-0.041-0.24-0.041-0.372 0-0.076 0.005-0.151 0.014-0.224l-0.001 0.009c0.024-0.215 0.068-0.378 0.13-0.49 0.203-0.37 0.564-0.751 1.083-1.143 0.526-0.394 0.987-0.638 1.383-0.731 0.056-0.015 0.121-0.024 0.188-0.024 0.14 0 0.27 0.038 0.382 0.105l-0.003-0.002c0.174 0.101 0.278 0.226 0.313 0.374 0.017 0.071-0.044 0.145-0.182 0.223s-0.351 0.188-0.638 0.33c-0.285 0.134-0.528 0.274-0.757 0.433l0.017-0.011c-0.738 0.505-1.074 0.901-1.005 1.191 0.037 0.156 0.553 0.494 1.548 1.013 0.414 0.221 0.77 0.474 1.091 0.767l-0.004-0.004c0.346 0.3 0.555 0.598 0.625 0.895zM27.104 16.431c0.032 0.135 0.126 0.183 0.281 0.147 0.268-0.064 0.575-0.215 0.922-0.454 0.351-0.247 0.548-0.377 0.591-0.386 0.127-0.030 0.207 0.022 0.239 0.156 0.048 0.206-0.108 0.493-0.468 0.862-0.353 0.368-0.703 0.593-1.049 0.674-0.339 0.080-0.644 0.055-0.913-0.075-0.271-0.138-0.43-0.306-0.477-0.505-0.047-0.198-0.064-0.459-0.051-0.783 0.011-0.332 0.035-0.767 0.071-1.307 0.042-0.548 0.070-1 0.082-1.354-0.314 0.156-0.527 0.248-0.64 0.274s-0.239-0.003-0.379-0.090c-0.134-0.095-0.214-0.196-0.239-0.302-0.040-0.17 0.381-0.442 1.262-0.815-0.012-0.618-0.071-1.153-0.178-1.606-0.050-0.212-0.005-0.335 0.137-0.369 0.12-0.028 0.287 0.015 0.5 0.129 0.212 0.106 0.34 0.255 0.385 0.447s0.065 0.542 0.058 1.052c0.394-0.131 0.711-0.225 0.951-0.281 0.425-0.101 0.658-0.058 0.702 0.126 0.025 0.106-0.071 0.222-0.287 0.348-0.209 0.124-0.663 0.348-1.363 0.67-0.016 0.594-0.052 1.28-0.107 2.055-0.057 0.769-0.067 1.231-0.030 1.386zM31.839 10.869c0.318-0.075 0.649 0.018 0.995 0.281 0.343 0.255 0.546 0.513 0.608 0.775 0.060 0.255 0.034 0.538-0.079 0.849 0.11 0.086 0.174 0.167 0.193 0.246 0.047 0.198 0.081 0.549 0.103 1.052 0.030 0.502 0.051 0.829 0.065 0.983 0.021 0.152 0.036 0.276 0.043 0.371 0.006 0.089 0.009 0.177 0.007 0.268 0.014 0.183-0.029 0.287-0.128 0.311-0.127 0.030-0.258-0.055-0.396-0.254-0.131-0.208-0.246-0.488-0.343-0.838-0.44 0.949-0.928 1.487-1.465 1.614-0.325 0.077-0.679 0.015-1.062-0.186-0.378-0.209-0.602-0.463-0.672-0.761-0.1-0.425-0.069-0.986 0.095-1.682 0.173-0.744 0.452-1.4 0.826-1.99l-0.015 0.026c0.379-0.606 0.788-0.96 1.225-1.065zM32.768 12.623c-0.156-0.658-0.364-0.957-0.626-0.895-0.275 0.065-0.55 0.34-0.823 0.823-0.261 0.446-0.474 0.962-0.61 1.508l-0.009 0.041c-0.137 0.556-0.171 0.979-0.103 1.27 0.027 0.119 0.109 0.215 0.217 0.261l0.002 0.001c0.115 0.047 0.24 0.055 0.374 0.023 0.332-0.079 0.654-0.39 0.965-0.935 0.31-0.551 0.47-1.169 0.48-1.852-0.004-0.111 0.041-0.189 0.135-0.234l-0.002-0.010z">
            </path>
            <path fill="#bbf330" style="fill: var(--color4, #bbf330)"
                d="M30.759 19.978c-0.303 0.075-0.542 0.306-0.641 0.602-1.906 5.649-7.244 9.719-13.535 9.719-3.815 0-7.28-1.496-9.841-3.934-0.164-0.159-0.388-0.257-0.635-0.257-0.075 0-0.147 0.009-0.217 0.026l0.006-0.001c-0.639 0.158-0.88 0.935-0.406 1.392 2.861 2.772 6.767 4.481 11.072 4.481 0.007 0 0.014 0 0.021 0h-0.001c7.078 0 13.081-4.606 15.182-10.986 0.206-0.626-0.368-1.199-1.006-1.041zM1.866 14.155c0.343-0.091 0.603-0.371 0.664-0.719l0.001-0.005c1.211-6.665 7.039-11.72 14.051-11.72 4.559 0 8.617 2.137 11.232 5.465 0.219 0.279 0.578 0.413 0.923 0.328 0.583-0.145 0.847-0.825 0.478-1.301-2.924-3.77-7.495-6.198-12.634-6.198-7.881 0-14.43 5.711-15.742 13.225-0.103 0.593 0.445 1.070 1.028 0.926zM40.615 5.337c-3.777 7.241-5.435 2.465-10.753 5.27 0.532-8.405 6.163-3.291 10.753-5.27z">
            </path>
        </symbol>
        <symbol id="Ellipse-big" viewBox="0 0 32 32">
            <path fill="#fefefe" style="fill: var(--color1, #fefefe); stroke: var(--color2, #ffe550)" stroke="#ffe550"
                stroke-linejoin="miter" stroke-linecap="butt" stroke-miterlimit="4" stroke-width="1.4345"
                d="M31.283 16c0 8.44-6.842 15.283-15.283 15.283s-15.283-6.842-15.283-15.283c0-8.44 6.842-15.283 15.283-15.283s15.283 6.842 15.283 15.283z">
            </path>
        </symbol>
        <symbol id="Ellipse-small" viewBox="0 0 32 32">
            <path fill="#fff" style="fill: var(--color3, #fff); stroke: var(--color2, #ffe550)" stroke="#ffe550"
                stroke-linejoin="miter" stroke-linecap="butt" stroke-miterlimit="4" stroke-width="1.4"
                d="M31.3 16c0 8.45-6.85 15.3-15.3 15.3s-15.3-6.85-15.3-15.3c0-8.45 6.85-15.3 15.3-15.3s15.3 6.85 15.3 15.3z">
            </path>
        </symbol>
        <symbol id="customers-480-bg" viewBox="0 0 20 32" preserveAspectRatio="none">
            <path fill="#ffe550" style="fill: var(--color1, #ffe550)"
                d="M0 0h19.974v32c-5.304-3.075-14.67-3.075-19.974 0v-32z"></path>
        </symbol>
        <symbol id="offerings-480-bg" viewBox="0 0 15 32" preserveAspectRatio="none">
            <path fill="#ffe550" style="fill: var(--color1, #ffe550)"
                d="M0 3.404c3.275-4.539 11.354-4.539 14.629 0v28.596h-14.629v-28.596z"></path>
        </symbol>
        <symbol id="offerings-desk-bg" viewBox="0 0 50 32" preserveAspectRatio="none">
            <path fill="#ffe550" style="fill: var(--color1, #ffe550)"
                d="M0 6.183c17.961-10.704 39.456 11.675 49.709-6.183v32h-49.709v-25.817z"></path>
        </symbol>
        <symbol id="customers-desk-bg" viewBox="0 0 63 32" preserveAspectRatio="none">
            <path fill="#ffe550" style="fill: var(--color1, #ffe550)"
                d="M0 29.091c22.677-11.646 50.275 17.005 63.308-7.022v-22.069h-63.308v29.091z"></path>
        </symbol>
        <symbol id="customers-tablet-bg" viewBox="0 0 45 32" preserveAspectRatio="none">
            <path fill="#ffe550" style="fill: var(--color1, #ffe550)"
                d="M0 30.417c16.182-6.339 35.876 9.255 45.176-3.822v-26.595h-45.176v30.417z"></path>
        </symbol>
        <symbol id="offerings-tablet-bg" viewBox="0 0 22 32" preserveAspectRatio="none">
            <path fill="#ffe550" style="fill: var(--color1, #ffe550)"
                d="M0 3.705c9.358-5.319 16.83 5.909 21.558-3.705v32h-21.558v-28.295z"></path>
        </symbol>
        <symbol id="offerings-phone-bg" viewBox="0 0 10 32" preserveAspectRatio="none">
            <path fill="#ffe550" style="fill: var(--color1, #ffe550)"
                d="M0 1.829c2.59-2.438 7.163-2.438 9.752 0v30.171h-9.752v-30.171z"></path>
        </symbol>
        <symbol id="customers-phone-bg" viewBox="0 0 13 32" preserveAspectRatio="none">
            <path fill="#ffe550" style="fill: var(--color1, #ffe550)"
                d="M0 0h13.316v32c-3.536-1.66-9.78-1.66-13.316 0v-32z"></path>
        </symbol>
        <symbol id="all-stars" viewBox="0 0 202 32">
            <path fill="#ffe550" style="fill: var(--color1, #ffe550)"
                d="M15.42 1.038c0.584-1.384 2.576-1.384 3.16 0l3.448 8.162c0.246 0.582 0.804 0.98 1.444 1.032l8.952 0.706c1.516 0.12 2.132 1.982 0.976 2.958l-6.82 5.752c-0.367 0.308-0.598 0.767-0.598 1.281 0 0.138 0.017 0.272 0.048 0.401l-0.002-0.011 2.084 8.6c0.352 1.456-1.258 2.608-2.556 1.828l-7.664-4.61c-0.255-0.155-0.563-0.247-0.892-0.247s-0.637 0.092-0.9 0.251l0.008-0.004-7.664 4.61c-1.3 0.78-2.908-0.372-2.556-1.828l2.084-8.6c0.029-0.117 0.046-0.251 0.046-0.389 0-0.513-0.231-0.972-0.596-1.278l-0.003-0.002-6.82-5.75c-1.156-0.976-0.54-2.84 0.976-2.96l8.952-0.704c0.649-0.050 1.193-0.456 1.44-1.021l0.004-0.011 3.448-8.164zM57.42 1.038c0.584-1.384 2.576-1.384 3.16 0l3.448 8.162c0.246 0.582 0.804 0.98 1.444 1.032l8.952 0.706c1.516 0.12 2.132 1.982 0.976 2.958l-6.82 5.752c-0.367 0.308-0.598 0.767-0.598 1.281 0 0.138 0.017 0.272 0.048 0.401l-0.002-0.011 2.084 8.6c0.352 1.456-1.258 2.608-2.556 1.828l-7.664-4.61c-0.255-0.155-0.563-0.247-0.892-0.247s-0.637 0.092-0.9 0.251l0.008-0.004-7.664 4.61c-1.3 0.78-2.908-0.372-2.556-1.828l2.084-8.6c0.029-0.117 0.046-0.252 0.046-0.39 0-0.513-0.231-0.972-0.596-1.278l-0.003-0.002-6.82-5.75c-1.156-0.976-0.54-2.84 0.976-2.96l8.952-0.704c0.649-0.050 1.193-0.456 1.44-1.021l0.004-0.011 3.448-8.164zM99.42 1.038c0.584-1.384 2.576-1.384 3.16 0l3.448 8.162c0.246 0.582 0.804 0.98 1.444 1.032l8.952 0.706c1.516 0.12 2.132 1.982 0.976 2.958l-6.82 5.752c-0.367 0.308-0.598 0.767-0.598 1.281 0 0.138 0.017 0.272 0.048 0.401l-0.002-0.011 2.084 8.6c0.352 1.456-1.258 2.608-2.556 1.828l-7.664-4.61c-0.255-0.155-0.563-0.247-0.892-0.247s-0.637 0.092-0.9 0.251l0.008-0.004-7.664 4.61c-1.3 0.78-2.908-0.372-2.556-1.828l2.084-8.6c0.030-0.118 0.047-0.253 0.047-0.392 0-0.512-0.231-0.97-0.594-1.276l-0.003-0.002-6.822-5.75c-1.158-0.976-0.542-2.84 0.974-2.96l8.952-0.704c0.649-0.050 1.193-0.456 1.44-1.021l0.004-0.011 3.45-8.164zM141.42 1.038c0.584-1.384 2.576-1.384 3.16 0l3.448 8.162c0.248 0.582 0.804 0.98 1.444 1.032l8.952 0.706c1.516 0.12 2.132 1.982 0.976 2.958l-6.82 5.752c-0.367 0.308-0.598 0.767-0.598 1.281 0 0.138 0.017 0.272 0.048 0.401l-0.002-0.011 2.084 8.6c0.352 1.456-1.258 2.608-2.556 1.828l-7.664-4.61c-0.255-0.155-0.563-0.247-0.892-0.247s-0.637 0.092-0.9 0.251l0.008-0.004-7.664 4.61c-1.3 0.78-2.908-0.372-2.556-1.828l2.084-8.6c0.029-0.117 0.046-0.252 0.046-0.39 0-0.513-0.232-0.972-0.596-1.278l-0.003-0.002-6.82-5.75c-1.156-0.976-0.54-2.84 0.976-2.96l8.952-0.704c0.649-0.050 1.193-0.456 1.44-1.021l0.004-0.011 3.448-8.164zM183.42 1.038c0.584-1.384 2.576-1.384 3.16 0l3.448 8.162c0.248 0.582 0.804 0.98 1.444 1.032l8.952 0.706c1.516 0.12 2.132 1.982 0.976 2.958l-6.82 5.752c-0.367 0.308-0.598 0.767-0.598 1.281 0 0.138 0.017 0.272 0.048 0.401l-0.002-0.011 2.084 8.6c0.352 1.456-1.258 2.608-2.556 1.828l-7.664-4.61c-0.255-0.155-0.563-0.247-0.892-0.247s-0.637 0.092-0.9 0.251l0.008-0.004-7.664 4.61c-1.3 0.78-2.908-0.372-2.556-1.828l2.084-8.6c0.029-0.117 0.046-0.252 0.046-0.39 0-0.513-0.232-0.972-0.596-1.278l-0.003-0.002-6.82-5.75c-1.156-0.976-0.54-2.84 0.976-2.96l8.952-0.704c0.649-0.050 1.193-0.456 1.44-1.021l0.004-0.011 3.448-8.164z">
            </path>
        </symbol>
    </defs>
</svg>